<?xml version="1.0" standalone="no"?><svg xmlns="http://www.w3.org/2000/svg" viewBox="0 0 1440 320"><path fill="#00cba9" fill-opacity="1" d="M0,256L24,218.7C48,181,96,107,144,106.7C192,107,240,181,288,224C336,267,384,277,432,261.3C480,245,528,203,576,192C624,181,672,203,720,202.7C768,203,816,181,864,186.7C912,192,960,224,1008,213.3C1056,203,1104,149,1152,149.3C1200,149,1248,203,1296,240C1344,277,1392,299,1416,309.3L1440,320L1440,320L1416,320C1392,320,1344,320,1296,320C1248,320,1200,320,1152,320C1104,320,1056,320,1008,320C960,320,912,320,864,320C816,320,768,320,720,320C672,320,624,320,576,320C528,320,480,320,432,320C384,320,336,320,288,320C240,320,192,320,144,320C96,320,48,320,24,320L0,320Z"></path></svg>